<svg xmlns="http://www.w3.org/2000/svg" fill="none" viewBox="0 0 345.633 323">
<path d="M-189.242 161.03C-189.242 73.4431 -134.739 14.2725 -47.1519 14.2725C26.0293 14.2725 72.7451 51.6451 82.4752 116.652H1.11148C-3.95111 89.7916 -20.6865 75.3858 -46.3782 75.3858C-87.2576 75.3858 -105.936 111.976 -105.936 161.03C-105.936 215.92 -82.9688 247.061 -46.3782 247.061C-19.1307 247.061 0.724579 229.931 3.83623 201.128V199.572H-47.1602V143.126H82.467V302.347H14.3401V269.65H12.7843C-2.39529 294.567 -29.2559 308.191 -66.2417 308.191C-138.633 308.183 -189.242 248.625 -189.242 161.03Z" fill="#171717"/>
<path d="M345.629 60.6841V20.1174H265.821V125.609H178.62V20.1174H98.8125V302.339H178.62V189.834H265.821V302.339H345.629V260.093C329.774 232.187 321.196 198.56 320.933 161.426C320.9 161.088 320.9 160.734 320.9 160.397C320.9 160.043 320.9 159.705 320.933 159.351C321.205 122.217 329.774 88.5901 345.629 60.6841Z" fill="#171717"/>
</svg>
